<svg width="74" height="74" viewBox="0 0 74 74" fill="none" xmlns="http://www.w3.org/2000/svg">
<path d="M69.6814 28.6888H65.846C65.225 26.5016 64.3673 24.4156 63.3042 22.4623L66.0173 19.7077C67.4726 18.2285 67.4726 15.8328 66.0173 14.3551L59.5358 7.7762C58.0804 6.297 55.7207 6.297 54.2653 7.7762L51.5522 10.5307C49.6283 9.44978 47.5737 8.57901 45.4194 7.94846V4.05609C45.4194 1.9653 43.7492 0.271179 41.6915 0.271179H32.5265C30.4672 0.271179 28.7985 1.9653 28.7985 4.05609V7.94846C26.6443 8.57901 24.5896 9.44978 22.6642 10.5291L19.9526 7.7762C18.4973 6.297 16.136 6.297 14.6806 7.7762L8.20066 14.3551C6.74529 15.8328 6.74529 18.2285 8.20066 19.7077L10.9122 22.4607C9.8475 24.4156 8.98983 26.5016 8.36877 28.6888H4.53654C2.47722 28.6888 0.808594 30.3829 0.808594 32.4737V41.7772C0.808594 43.8679 2.47722 45.5621 4.53654 45.5621H8.36877C8.98983 47.7508 9.8475 49.8369 10.9106 51.7917L8.20066 54.5431C6.74529 56.0207 6.74529 58.4181 8.20066 59.8957L14.6806 66.4747C16.136 67.9539 18.4973 67.9539 19.9526 66.4747L22.6626 63.7233C24.588 64.8027 26.6427 65.6734 28.7985 66.304V70.1948C28.7985 72.2856 30.4672 73.9797 32.5265 73.9797H41.6915C43.7492 73.9797 45.4194 72.2856 45.4194 70.1948V66.304C47.5737 65.6718 49.6283 64.8011 51.5538 63.7217L54.2653 66.4747C55.7207 67.9539 58.0804 67.9539 59.5358 66.4747L66.0173 59.8957C67.4726 58.4181 67.4726 56.0207 66.0173 54.5431L63.3042 51.7886C64.3689 49.8353 65.225 47.7492 65.846 45.5621H69.6814C71.7392 45.5621 73.4078 43.8679 73.4078 41.7772V32.4737C73.4078 30.3829 71.7392 28.6888 69.6814 28.6888ZM37.1074 58.2237C25.6309 58.2237 16.3274 48.778 16.3274 37.1262C16.3274 25.4744 25.6309 16.0287 37.1074 16.0287C48.5839 16.0287 57.8874 25.4744 57.8874 37.1262C57.8874 48.778 48.5839 58.2237 37.1074 58.2237Z" fill="url(#paint0_linear_3107_51491)"/>
<path d="M32.483 47.2814L25.849 40.546C25.0894 39.7748 25.0894 38.5231 25.849 37.7519C26.6086 36.9807 27.8414 36.9807 28.601 37.7519L32.483 41.6933L45.6094 28.3663C46.369 27.5951 47.6018 27.5951 48.3614 28.3663C49.121 29.1375 49.121 30.3891 48.3614 31.1603L32.483 47.2814Z" fill="#CF63FF"/>
<defs>
<linearGradient id="paint0_linear_3107_51491" x1="66.4733" y1="14.9098" x2="7.10995" y2="58.4768" gradientUnits="userSpaceOnUse">
<stop stop-color="#CF63FF"/>
<stop offset="1" stop-color="#4D1AE5"/>
</linearGradient>
</defs>
</svg>
