<svg width="556" height="540" viewBox="0 0 556 540" fill="none" xmlns="http://www.w3.org/2000/svg">
<path d="M530.303 270.216C530.303 404.746 417.998 514.972 278.001 514.972C138.004 514.972 25.699 404.746 25.699 270.216C25.699 135.687 138.004 25.46 278.001 25.46C417.998 25.46 530.303 135.687 530.303 270.216Z" stroke="url(#paint0_linear_10_62)" stroke-width="49.9678"/>
<mask id="mask0_10_62" style="mask-type:luminance" maskUnits="userSpaceOnUse" x="10" y="12" width="536" height="520">
<path d="M545.434 12.13H10.567V531.045H545.434V12.13Z" fill="white"/>
</mask>
<g mask="url(#mask0_10_62)">
<path d="M178.97 30.509L184.622 28.582L189.987 43.43C191.45 47.49 193.788 49.159 197.402 47.931C201.048 46.682 201.802 43.969 200.339 39.909L194.974 25.061L200.616 23.134L205.869 37.691C208.496 44.97 206.213 50.225 199.097 52.658C192.015 55.07 186.85 52.357 184.223 45.078L178.97 30.52V30.509Z" fill="white"/>
<path d="M206.679 21.647L212.464 20.15L219.635 46.38L213.85 47.877L206.679 21.647Z" fill="white"/>
<path d="M227.426 16.705L249.327 13.518L250.091 18.46L242.078 19.623L245.448 41.513L239.529 42.374L236.16 20.484L228.191 21.647L227.426 16.705Z" fill="white"/>
<path d="M254.515 13.109L273.235 12.129L273.512 17.125L260.766 17.793L261.098 23.865L271.461 23.327L271.727 28.086L261.364 28.625L261.708 34.891L274.897 34.202L275.174 39.198L256.011 40.2L254.515 13.109Z" fill="white"/>
<path d="M283.264 30.562C283.342 33.2 285.414 35.117 288.839 35.257C291.588 35.375 293.672 34.299 293.771 32.167C293.871 29.884 291.621 29.324 286.999 28.237C282.333 27.181 278.254 25.534 278.498 20.032C278.72 15.23 282.976 11.999 289.271 12.269C295.844 12.549 299.878 16.059 299.734 21.249L293.871 21.001C293.694 18.707 291.976 17.039 289.061 16.92C286.512 16.812 284.627 17.781 284.539 19.87C284.439 22.078 286.611 22.638 291.2 23.682C295.944 24.737 300.111 26.309 299.823 31.768C299.557 36.84 295.09 40.145 288.551 39.865C281.458 39.564 277.19 35.731 277.401 30.239L283.253 30.562H283.264Z" fill="white"/>
<path d="M303.547 13.26L325.481 16.221L324.772 21.174L316.748 20.086L313.611 42.009L307.681 41.212L310.818 19.29L302.838 18.213L303.547 13.26Z" fill="white"/>
<path d="M330.026 17.276L335.878 18.472L330.115 45.013L324.263 43.818L330.026 17.276Z" fill="white"/>
<path d="M334.293 45.712L342.173 19.677L347.383 21.163L353.789 40.813L358.754 24.414L364.418 26.03L356.538 52.065L351.295 50.569L344.889 30.918L339.923 47.317L334.293 45.712Z" fill="white"/>
<path d="M364.728 40.404C368.087 32.738 375.147 29.712 383.038 32.975C389.245 35.548 391.983 41.061 390.287 46.725L384.778 44.442C385.322 41.416 384.069 38.746 380.91 37.443C376.61 35.667 372.465 37.906 370.348 42.719C368.231 47.532 369.339 51.947 373.739 53.777C376.676 54.994 380.312 54.725 382.351 51.441L382.495 51.118L376.111 48.469L377.973 44.227L389.467 48.986L383.382 62.865L379.525 61.271L380.29 58.052C378.162 59.236 375.025 59.667 371.39 58.16C364.052 55.123 361.37 48.071 364.728 40.404Z" fill="white"/>
<path d="M483.854 106.129L490.77 114.904C494.461 119.588 494.028 124.832 489.529 128.181C485.062 131.508 479.731 130.539 476.04 125.855L472.759 121.699L465.311 127.233L461.676 122.614L483.854 106.118V106.129ZM483.532 113.688L476.716 118.759L479.653 122.485C481.349 124.638 483.743 125.058 485.838 123.508C487.966 121.925 488.165 119.577 486.47 117.424L483.532 113.698V113.688Z" fill="white"/>
<path d="M499.88 127.083L509.789 142.556L505.422 145.205L498.672 134.674L493.352 137.894L498.839 146.454L494.671 148.973L489.185 140.413L483.699 143.729L490.681 154.626L486.314 157.264L476.173 141.425L499.892 127.083H499.88Z" fill="white"/>
<path d="M512.971 147.854L517.914 157.803C520.585 163.176 519.1 168.312 513.991 170.702C510.754 172.22 507.352 171.79 504.836 169.83L497.521 179.198L494.639 173.405L501.045 165.329L498.862 160.925L490.416 164.877L487.812 159.644L512.971 147.854ZM511.076 155.197L503.351 158.815L505.479 163.111C506.709 165.587 509.003 166.46 511.331 165.361C513.703 164.252 514.434 161.97 513.204 159.493L511.076 155.197Z" fill="white"/>
<path d="M524.586 171.8L531.158 188.532L526.348 190.32L521.904 179.025L515.797 181.297L519.443 190.567L514.855 192.269L511.208 182.998L500.623 186.928L498.484 181.501L524.575 171.821L524.586 171.8Z" fill="white"/>
<path d="M508.781 211.596C506.642 203.887 511.031 197.082 518.889 195.014C526.748 192.958 534.063 196.694 536.202 204.403C538.341 212.113 533.952 218.918 526.094 220.985C518.235 223.053 510.92 219.306 508.781 211.596ZM513.669 210.315C514.888 214.697 519.41 216.56 524.498 215.225C529.585 213.89 532.533 210.067 531.314 205.696C530.084 201.281 525.562 199.418 520.474 200.743C515.387 202.078 512.439 205.9 513.669 210.315Z" fill="white"/>
<path d="M540.623 223.236L542.319 234.165C543.239 240.066 540.258 244.545 534.66 245.363C531.103 245.88 527.988 244.502 526.17 241.907L516.339 248.755L515.353 242.392L523.921 236.513L523.167 231.678L513.89 233.035L512.992 227.285L540.612 223.226L540.623 223.236ZM536.589 229.708L528.11 230.957L528.842 235.673C529.263 238.397 531.191 239.872 533.752 239.495C536.356 239.118 537.742 237.148 537.32 234.424L536.589 229.708Z" fill="white"/>
<path d="M544.67 250.284L544.87 257.918L524.565 265.929L545.258 272.713L545.446 280.196L517.527 280.874L517.383 275.329L536.092 274.877L517.205 268.277L517.083 263.55L535.604 256.045L516.895 256.497L516.751 250.952L544.67 250.273V250.284Z" fill="white"/>
<path d="M517.337 282.532L544.059 295.227L543.317 302.172L514.478 309.139L515.143 302.926L521.438 301.461L522.546 291.2L516.694 288.497L517.337 282.521V282.532ZM527.179 293.235L526.414 300.374L537.354 297.865L527.179 293.246V293.235Z" fill="white"/>
<path d="M514.068 310.84L541.344 316.687L540.181 321.833L520.441 329.392L537.62 333.075L536.346 338.674L509.069 332.827L510.244 327.637L529.984 320.078L512.804 316.396L514.068 310.829V310.84Z" fill="white"/>
<path d="M521.55 339.933C529.663 342.636 533.287 349.215 530.55 356.978C528.4 363.062 522.969 366.044 516.995 364.795L518.956 359.218C522.137 359.541 524.786 358.13 525.85 355.083C527.324 350.905 524.653 347.234 519.566 345.532C514.512 343.853 510.056 345.112 508.593 349.258C507.496 352.37 508.693 355.072 511.409 356.709L509.458 362.243C503.938 359.713 501.578 353.963 503.794 347.696C506.488 340.073 513.437 337.22 521.55 339.922V339.933Z" fill="white"/>
<path d="M524.187 372.86L516.328 389.398L511.651 387.299L517.004 376.036L511.319 373.484L506.974 382.636L502.518 380.634L506.863 371.481L501 368.854L495.469 380.505L490.792 378.405L498.839 361.479L524.198 372.849L524.187 372.86Z" fill="white"/>
<path d="M509.135 402.385L497.243 420.539L492.898 417.858L497.254 411.214L478.035 399.327L481.249 394.428L500.468 406.315L504.802 399.715L509.147 402.406L509.135 402.385Z" fill="white"/>
<path d="M494.161 424.598L482.635 438.972L478.578 435.893L486.425 426.105L481.482 422.369L475.109 430.326L471.241 427.397L477.614 419.44L472.515 415.585L464.402 425.707L460.346 422.638L472.139 407.93L494.172 424.598H494.161Z" fill="white"/>
<path d="M461.732 434.235C459.626 432.566 456.789 432.824 454.428 435.247C452.533 437.185 452.001 439.425 453.597 440.889C455.304 442.461 457.221 441.18 461.1 438.509C464.979 435.785 468.936 433.869 473.037 437.659C476.628 440.964 476.34 446.208 472.006 450.655C467.473 455.296 462.109 455.953 458.174 452.432L462.209 448.297C464.104 449.675 466.531 449.503 468.537 447.446C470.299 445.648 470.776 443.635 469.213 442.192C467.562 440.674 465.711 441.901 461.887 444.571C457.952 447.36 454.007 449.374 449.95 445.583C446.182 442.063 446.548 436.625 451.059 432.016C455.946 427.01 461.721 426.407 465.855 430.164L461.765 434.245L461.732 434.235Z" fill="white"/>
<path d="M461.875 460.453L445.183 474.58L441.803 470.811L447.91 465.643L432.947 448.953L437.458 445.131L452.421 461.82L458.495 456.674L461.875 460.442V460.453Z" fill="white"/>
<path d="M441.36 477.229L436.583 480.728L419.77 459.064L424.547 455.564L441.36 477.229Z" fill="white"/>
<path d="M416.489 461.659L431.496 484.54L426.918 487.372L407.467 479.146L416.921 493.563L411.945 496.643L396.938 473.762L401.548 470.908L421 479.135L411.546 464.717L416.489 461.659Z" fill="white"/>
<path d="M400.595 487.458C404.319 494.963 402.025 502.113 394.289 505.73C388.215 508.573 382.141 506.947 378.871 501.983L384.258 499.453C386.242 501.843 389.135 502.672 392.227 501.23C396.428 499.259 397.425 494.748 395.087 490.032C392.748 485.315 388.603 483.216 384.291 485.229C381.421 486.575 379.237 489.407 380.423 493.068L380.578 493.38L386.829 490.451L388.891 494.608L377.641 499.873L370.902 486.295L374.671 484.529L376.666 487.21C377.142 484.874 378.882 482.3 382.44 480.632C389.633 477.261 396.849 479.953 400.584 487.458H400.595Z" fill="white"/>
<path d="M275.353 504.665L263.227 531.045L256.067 530.56L247.888 502.812L254.294 503.243L256.023 509.305L266.608 510.016L269.179 504.245L275.353 504.665ZM264.69 514.592L257.331 514.097L260.301 524.627L264.701 514.592H264.69Z" fill="white"/>
<path d="M241.204 529.118L230.01 527.18C224.036 526.146 220.711 521.99 221.697 516.574C222.684 511.19 227.283 508.412 233.257 509.435L238.566 510.35L240.207 501.381L246.103 502.404L241.204 529.118ZM236.183 523.325L237.691 515.12L232.936 514.302C230.187 513.828 228.137 515.088 227.671 517.607C227.206 520.17 228.68 522.033 231.429 522.507L236.183 523.325Z" fill="white"/>
<path d="M215.369 524.186L209.562 522.754L216.422 496.449L222.219 497.871L215.358 524.175L215.369 524.186Z" fill="white"/>
<path d="M194.754 518.706L174.017 511.168L175.823 506.485L183.415 509.241L191.395 488.514L197.004 490.549L189.024 511.276L196.571 514.022L194.765 518.706H194.754Z" fill="white"/>
<path d="M169.307 509.122L152.438 501.176L154.687 496.675L166.181 502.091L168.919 496.61L159.586 492.217L161.725 487.932L171.058 492.325L173.884 486.672L162.003 481.073L164.252 476.572L181.521 484.712L169.329 509.133L169.307 509.122Z" fill="white"/>
<path d="M152.847 480.33C154.089 477.983 153.235 475.334 150.309 473.6C147.96 472.211 145.599 472.168 144.457 473.988C143.227 475.937 144.923 477.488 148.425 480.61C151.983 483.722 154.732 487.081 151.783 491.776C149.201 495.878 143.87 496.707 138.483 493.509C132.864 490.172 131.08 485.208 133.806 480.729L138.816 483.7C137.829 485.789 138.505 488.061 140.988 489.536C143.172 490.828 145.3 490.871 146.419 489.084C147.605 487.2 145.987 485.692 142.496 482.613C138.871 479.458 136.012 476.131 138.971 471.479C141.731 467.162 147.284 466.376 152.87 469.681C158.932 473.277 160.75 478.629 157.835 483.345L152.87 480.309L152.847 480.33Z" fill="white"/>
<path d="M126.469 485.951L108.746 473.062L111.827 469.057L118.311 473.773L131.966 456.061L136.754 459.549L123.099 477.262L129.55 481.956L126.469 485.962V485.951Z" fill="white"/>
<path d="M105.288 470.004L100.766 466.203L119.042 445.681L123.564 449.482L105.288 470.004Z" fill="white"/>
<path d="M115.728 443.118L95.844 462.176L92.031 458.418L96.232 438.218L83.708 450.224L79.562 446.143L99.446 427.085L103.281 430.864L99.081 451.064L111.616 439.058L115.739 443.118H115.728Z" fill="white"/>
<path d="M86.457 433.406C79.685 438.52 72.004 437.831 66.74 431.241C62.606 426.062 62.971 419.946 67.283 415.812L70.951 420.409C68.967 422.789 68.724 425.718 70.829 428.356C73.689 431.941 78.444 431.941 82.7 428.732C86.956 425.524 88.208 421.141 85.271 417.47C83.309 415.015 80.007 413.54 76.571 415.435L76.283 415.65L80.539 420.98L76.792 423.812L69.134 414.229L81.392 404.979L83.963 408.199L81.68 410.654C84.13 410.622 87.089 411.731 89.505 414.756C94.404 420.883 93.207 428.302 86.435 433.416L86.457 433.406Z" fill="white"/>
<path d="M15.1 319.744L13.438 308.815C12.54 302.904 15.532 298.446 21.141 297.639C24.698 297.133 27.813 298.522 29.62 301.127L39.473 294.301L40.448 300.664L31.858 306.522L32.59 311.356L41.867 310.021L42.742 315.771L15.111 319.744H15.1ZM19.157 313.284L27.647 312.067L26.926 307.351C26.516 304.627 24.588 303.141 22.027 303.507C19.423 303.884 18.026 305.843 18.436 308.568L19.157 313.284Z" fill="white"/>
<path d="M11.476 293.224L10.567 275.027L15.71 274.791L16.32 287.184L22.582 286.893L22.083 276.826L26.982 276.599L27.481 286.667L33.931 286.366L33.3 273.552L38.442 273.315L39.362 291.943L11.465 293.246L11.476 293.224Z" fill="white"/>
<path d="M10.567 269.127L11.122 258.09C11.421 252.211 15.234 248.464 20.897 248.733C26.517 249.003 29.941 253.083 29.653 258.962L29.387 264.185L38.753 264.626L38.464 270.43L10.567 269.105V269.127ZM15.843 263.56L24.411 263.969L24.643 259.285C24.776 256.572 23.236 254.752 20.609 254.634C17.938 254.505 16.22 256.174 16.087 258.887L15.854 263.571L15.843 263.56Z" fill="white"/>
<path d="M41.977 234.93C40.67 242.811 33.776 247.269 25.74 245.999C17.705 244.739 12.617 238.397 13.925 230.515C15.233 222.633 22.127 218.176 30.162 219.446C38.198 220.706 43.285 227.048 41.966 234.93H41.977ZM36.979 234.144C37.721 229.664 34.385 226.154 29.187 225.336C23.989 224.518 19.677 226.822 18.935 231.301C18.181 235.813 21.517 239.323 26.715 240.141C31.914 240.959 36.225 238.655 36.968 234.133L36.979 234.144Z" fill="white"/>
<path d="M17.8721 211.596L20.9421 200.958C22.5941 195.208 27.2041 192.312 32.6571 193.798C36.1151 194.735 38.3771 197.243 38.9421 200.334L50.8011 198.008L49.0171 204.199L38.7201 206.148L37.3681 210.853L46.4011 213.308L44.7831 218.907L17.8831 211.596H17.8721ZM24.2891 207.3L32.5471 209.551L33.8661 204.964C34.6301 202.315 33.5001 200.194 31.0061 199.515C28.4681 198.826 26.3731 200.064 25.6081 202.713L24.2891 207.3Z" fill="white"/>
<path d="M24.688 188.532L32.645 168.451L37.445 170.249L34.53 177.593L55.788 185.55L53.638 190.977L32.379 183.02L29.487 190.331L24.688 188.532Z" fill="white"/>
<path d="M34.752 164.371L37.2899 159.105L62.5829 170.594L60.044 175.86L34.752 164.371Z" fill="white"/>
<path d="M64.211 166.815L39.916 153.431L42.598 148.844L63.745 147.261L48.439 138.83L51.354 133.834L75.649 147.218L72.956 151.837L51.798 153.42L67.104 161.851L64.211 166.804V166.815Z" fill="white"/>
<path d="M65.83 136.817C58.914 131.885 57.495 124.531 62.571 117.812C66.561 112.536 72.713 111.201 77.999 114.097L74.453 118.781C71.549 117.575 68.589 118.157 66.561 120.849C63.801 124.499 65.098 128.946 69.443 132.036C73.788 135.137 78.465 135.105 81.291 131.347C83.175 128.849 83.741 125.349 80.925 122.668L80.637 122.464L76.525 127.901L72.701 125.177L80.094 115.4L92.607 124.326L90.125 127.611L87.066 126.157C87.764 128.44 87.487 131.498 85.148 134.599C80.427 140.844 72.746 141.77 65.841 136.838L65.83 136.817Z" fill="white"/>
</g>
<defs>
<linearGradient id="paint0_linear_10_62" x1="200.938" y1="196.818" x2="467.336" y2="215.744" gradientUnits="userSpaceOnUse">
<stop stop-color="#C75FFE"/>
<stop offset="1" stop-color="#6B29EE"/>
</linearGradient>
</defs>
</svg>
