<svg width="144" height="36" viewBox="0 0 144 36" fill="none" xmlns="http://www.w3.org/2000/svg">
<g clip-path="url(#clip0_2984_2699)">
<path d="M18.8736 14.1712L16.5707 10.2634C15.6442 8.69367 16.8057 6.72335 18.6587 6.72335H38.4784L40.929 2.56598C41.5735 1.47573 40.7678 0.116211 39.4788 0.116211H1.6724C0.390031 0.122779 -0.415645 1.4823 0.228896 2.57254L7.07714 14.1712H18.8803H18.8736Z" fill="url(#paint0_linear_2984_2699)"/>
<path d="M20.7799 14.1694L23.0828 18.0772C24.0093 19.6469 22.8478 21.6172 20.9948 21.6172H11.4609L19.1283 34.6016C19.7728 35.6919 21.3775 35.6919 22.022 34.6016L34.0803 14.1694H20.7732H20.7799Z" fill="url(#paint1_linear_2984_2699)"/>
<path style="mix-blend-mode:multiply" d="M20.7799 14.1694L23.0828 18.0772C24.0093 19.6469 22.8478 21.6172 20.9948 21.6172H11.4609L19.1283 34.6016C19.7728 35.6919 21.3775 35.6919 22.022 34.6016L34.0803 14.1694H20.7732H20.7799Z" fill="url(#paint2_linear_2984_2699)"/>
<path style="mix-blend-mode:multiply" d="M18.8725 14.173L16.5696 10.2652C16.1198 9.49681 16.1668 8.64301 16.5428 7.95996L12.877 14.1665H18.8725V14.173Z" fill="url(#paint3_linear_2984_2699)"/>
<path d="M53.4968 19.9245C52.5904 19.5567 51.4154 19.1757 49.9988 18.8014C48.8776 18.4993 47.9846 18.2234 47.3535 17.9738C46.7425 17.7374 46.2255 17.4156 45.8227 17.0215C45.4333 16.6406 45.2453 16.1677 45.2453 15.5766C45.2453 14.8279 45.5609 14.2434 46.2188 13.7771C46.8835 13.3042 47.7966 13.0677 48.9313 13.0677C50.1599 13.0677 51.1469 13.3633 51.872 13.9478C52.5971 14.5323 52.9865 15.2876 53.0536 16.2597L53.0671 16.437H56.7463L56.7329 16.24C56.6322 14.3025 55.8802 12.7591 54.4904 11.6425C53.1074 10.5326 51.2744 9.96777 49.0454 9.96777C47.6019 9.96777 46.2994 10.2173 45.1647 10.7099C44.0301 11.2091 43.1371 11.8921 42.5127 12.7394C41.8883 13.5932 41.5728 14.5455 41.5728 15.5766C41.5728 16.8705 41.9219 17.9279 42.6134 18.7291C43.2915 19.5173 44.1241 20.1149 45.0775 20.5156C46.0241 20.9096 47.2461 21.3037 48.7097 21.678C50.3076 22.0721 51.496 22.4793 52.248 22.8799C52.9597 23.2609 53.3088 23.8257 53.3088 24.6138C53.3088 25.4019 52.9798 26.0127 52.295 26.5185C51.6101 27.0307 50.65 27.2934 49.4415 27.2934C48.139 27.2934 47.0715 26.9979 46.2793 26.4068C45.487 25.8223 45.0506 25.0867 44.9633 24.1606L44.9499 23.9899H41.1699L41.1834 24.1869C41.2572 25.4019 41.66 26.4922 42.3784 27.4248C43.0968 28.3574 44.0838 29.093 45.3192 29.6119C46.5411 30.1241 47.9443 30.3869 49.4885 30.3869C50.9387 30.3869 52.2345 30.1373 53.3558 29.6447C54.4837 29.1456 55.37 28.4559 55.9877 27.5824C56.6121 26.7024 56.9276 25.7041 56.9276 24.6007C56.9008 23.3791 56.5516 22.3742 55.8869 21.6124C55.2357 20.8636 54.4367 20.2922 53.5169 19.9113L53.4968 19.9245Z" fill="white"/>
<path d="M63.064 5.40354H59.3848V24.5879C59.3848 26.5254 59.8682 27.944 60.8216 28.7978C61.7682 29.6516 63.205 30.0851 65.0782 30.0851H68.2405V26.9785H65.622C64.6619 26.9785 63.9906 26.8012 63.6213 26.4466C63.252 26.0985 63.064 25.468 63.064 24.5813V13.3242H68.2405V10.2899H63.064V5.39697V5.40354Z" fill="white"/>
<path d="M84.8115 11.2042C83.3412 10.3898 81.6291 9.97607 79.7156 9.97607C77.8021 9.97607 76.0028 10.3964 74.4921 11.2239C72.9815 12.058 71.7931 13.2534 70.9606 14.7902C70.1281 16.3205 69.7051 18.1266 69.7051 20.1561C69.7051 22.1855 70.1415 23.9982 70.9942 25.5416C71.8535 27.0916 73.0553 28.3 74.566 29.1407C76.0766 29.9814 77.8088 30.4017 79.7156 30.4017C82.1125 30.4017 84.1535 29.7975 85.7716 28.6087C87.3964 27.42 88.4908 25.8569 89.0279 23.9588L89.095 23.7223H85.1606L85.1136 23.8471C84.7377 24.8914 84.0864 25.7386 83.1733 26.3626C82.2535 26.9865 81.092 27.3018 79.7156 27.3018C78.0304 27.3018 76.5802 26.7763 75.4052 25.7386C74.2706 24.7403 73.6193 23.3414 73.4716 21.5813H89.3032L89.3233 21.4105C89.3971 20.7209 89.4374 20.0575 89.4374 19.4402C89.4374 17.6472 89.0346 16.0118 88.2356 14.5801C87.4367 13.1549 86.2886 12.0121 84.8115 11.1911V11.2042ZM73.5186 18.5864C73.7133 16.8985 74.3579 15.5521 75.4455 14.5866C76.5735 13.5818 77.9633 13.076 79.5746 13.076C80.7026 13.076 81.7365 13.2993 82.663 13.746C83.5761 14.186 84.3147 14.8428 84.8451 15.6966C85.3486 16.5044 85.6239 17.4699 85.6508 18.5798H73.5253L73.5186 18.5864Z" fill="white"/>
<path d="M96.1773 3.48682H92.498V30.0861H96.1773V3.48682Z" fill="white"/>
<path d="M104.181 3.48682H100.502V30.0861H104.181V3.48682Z" fill="white"/>
<path d="M117.554 9.93555C111.787 9.93555 107.094 14.5264 107.094 20.1681C107.094 25.8098 111.787 30.4006 117.554 30.4006H121.603V26.7949H117.554C113.821 26.7949 110.78 23.8197 110.78 20.1681C110.78 16.5164 113.821 13.5412 117.554 13.5412C121.287 13.5412 124.329 16.5164 124.329 20.1681V30.4006H128.014V20.1681C128.014 14.5264 123.321 9.93555 117.554 9.93555Z" fill="#8B3DF1"/>
<path d="M139.099 10.2925C135.232 10.2925 132.09 13.3662 132.09 17.1492V30.0876H135.769L135.789 16.5187C135.789 14.9162 137.125 13.6092 138.77 13.6092H143.289V10.2925H139.099Z" fill="white"/>
</g>
<defs>
<linearGradient id="paint0_linear_2984_2699" x1="37.3773" y1="-9.3873" x2="-9.95409" y2="26.6635" gradientUnits="userSpaceOnUse">
<stop stop-color="#CF63FF"/>
<stop offset="1" stop-color="#4D1AE5"/>
</linearGradient>
<linearGradient id="paint1_linear_2984_2699" x1="48.2535" y1="4.8958" x2="0.928853" y2="40.9465" gradientUnits="userSpaceOnUse">
<stop stop-color="#CF63FF"/>
<stop offset="1" stop-color="#4D1AE5"/>
</linearGradient>
<linearGradient id="paint2_linear_2984_2699" x1="16.859" y1="27.9354" x2="30.4223" y2="6.09664" gradientUnits="userSpaceOnUse">
<stop offset="0.27" stop-color="#A463FF" stop-opacity="0.3"/>
<stop offset="1" stop-color="#541ADD"/>
</linearGradient>
<linearGradient id="paint3_linear_2984_2699" x1="9.65425" y1="23.4664" x2="23.2242" y2="1.62742" gradientUnits="userSpaceOnUse">
<stop offset="0.27" stop-color="#A463FF" stop-opacity="0.3"/>
<stop offset="1" stop-color="#541ADD"/>
</linearGradient>
<clipPath id="clip0_2984_2699">
<rect width="143.283" height="35.3016" fill="white" transform="translate(0 0.124023)"/>
</clipPath>
</defs>
</svg>
